# xmcd CD database file
#
# Track frame offsets:
#	150
#	41112
#	63515
#	83920
#	109360
#	146980
#
# Disc length: 2277 seconds
#
# Revision: 0
# Processed by: cddbd v1.5.2PL0 Copyright (c) Steve Scherf et al.
# Submitted via: CDex 1.51
#
DISCID=5a08e306
DTITLE=Masato Imazu - What's A Melody
DYEAR=1990
DGENRE=Jazz
TTITLE0=But That's Impossible!
TTITLE1=Willful Drunkers
TTITLE2=Just One Time
TTITLE3=Lookin' Around The Bay
TTITLE4=Spring Tide
TTITLE5=The Girl Of My Heart
EXTD=YEAR: 1990
EXTT0=
EXTT1=
EXTT2=
EXTT3=
EXTT4=
EXTT5=
PLAYORDER=
